<?xml version="1.0" standalone="no"?>
<!DOCTYPE svg PUBLIC "-//W3C//DTD SVG 20010904//EN"
 "http://www.w3.org/TR/2001/REC-SVG-20010904/DTD/svg10.dtd">
<svg version="1.0" xmlns="http://www.w3.org/2000/svg"
 width="1003.000000pt" height="162.000000pt" viewBox="0 0 1003.000000 162.000000"
 preserveAspectRatio="xMidYMid meet">
<metadata>
Created by potrace 1.16, written by Peter Selinger 2001-2019
</metadata>
<g transform="translate(0.000000,162.000000) scale(0.100000,-0.100000)"
fill="#000000" stroke="none">
<path d="M224 1601 c-98 -25 -165 -97 -184 -200 -15 -80 -13 -550 3 -581 11
-21 47 -36 257 -105 l245 -81 3 -142 c3 -141 2 -143 -23 -168 -24 -24 -31 -26
-100 -22 -104 5 -109 11 -115 146 l-5 107 -135 0 -135 0 -3 -134 c-4 -209 27
-293 129 -351 42 -24 51 -25 256 -28 199 -3 214 -2 262 18 60 26 115 83 132
137 8 25 14 132 16 319 l4 281 -23 26 c-17 19 -80 44 -260 103 l-238 79 0 147
c0 186 2 188 118 188 113 0 116 -3 122 -142 l5 -113 132 -3 132 -3 7 26 c4 15
4 90 2 168 -5 160 -25 226 -81 273 -62 52 -88 58 -297 60 -107 2 -209 -1 -226
-5z"/>
<path d="M912 1598 c-15 -15 -16 -211 -2 -239 10 -17 22 -19 130 -19 l120 0 0
-645 c0 -627 1 -645 19 -655 28 -14 234 -13 249 2 9 9 12 168 12 655 l0 643
118 0 c78 0 122 4 130 12 13 13 17 212 6 242 -5 14 -49 16 -388 16 -284 0
-385 -3 -394 -12z"/>
<path d="M1762 1597 c-9 -11 -11 -203 -10 -783 l3 -769 135 0 135 0 3 258 2
257 63 0 62 0 59 -228 c33 -125 63 -242 68 -259 l9 -33 134 0 c126 0 135 1
135 19 0 10 -29 130 -65 265 -36 135 -65 249 -65 253 1 5 19 21 41 36 28 19
49 46 67 85 l27 57 0 330 c0 326 0 331 -24 383 -25 56 -62 93 -120 120 -51 23
-641 32 -659 9z m508 -277 c19 -19 20 -33 20 -235 0 -269 8 -255 -150 -255
l-110 0 0 255 0 255 110 0 c97 0 112 -2 130 -20z"/>
<path d="M2665 1598 c-3 -7 -4 -359 -3 -783 l3 -770 393 -3 392 -2 0 130 0
130 -260 0 -260 0 0 195 0 195 193 0 c137 0 196 3 205 12 17 17 17 229 0 246
-9 9 -68 12 -205 12 l-193 0 0 190 0 190 258 2 257 3 3 133 3 132 -391 0
c-303 0 -392 -3 -395 -12z"/>
<path d="M3565 1598 c-3 -7 -4 -359 -3 -783 l3 -770 393 -3 392 -2 0 130 0
130 -260 0 -260 0 0 195 0 195 193 0 c137 0 196 3 205 12 17 17 17 229 0 246
-9 9 -68 12 -205 12 l-193 0 0 190 0 190 258 2 257 3 3 133 3 132 -391 0
c-303 0 -392 -3 -395 -12z"/>
<path d="M4422 1598 c-15 -15 -16 -211 -2 -239 10 -17 22 -19 130 -19 l120 0
0 -645 c0 -627 1 -645 19 -655 28 -14 234 -13 249 2 9 9 12 168 12 655 l0 643
118 0 c78 0 122 4 130 12 13 13 17 212 6 242 -5 14 -49 16 -388 16 -284 0
-385 -3 -394 -12z"/>
<path d="M5305 1226 c-61 -19 -93 -44 -123 -95 l-27 -46 -3 -415 c-4 -465 -1
-494 54 -558 56 -66 99 -77 299 -77 163 0 173 1 220 26 30 15 62 42 80 68 30
43 30 43 33 207 l4 165 -109 -3 -108 -3 -5 -103 c-6 -127 -11 -132 -116 -132
-56 0 -77 4 -95 19 l-24 19 0 337 0 337 24 19 c18 15 39 19 95 19 105 0 110
-5 116 -132 l5 -103 105 0 105 0 3 140 c2 83 -1 156 -8 178 -17 59 -73 114
-133 132 -64 19 -333 20 -392 1z"/>
<path d="M5937 1233 c-4 -3 -7 -273 -7 -599 0 -530 2 -592 16 -598 20 -8 178
-8 198 0 14 5 16 31 16 185 l0 179 73 0 72 0 43 -179 c29 -121 48 -181 59
-185 24 -10 187 -7 203 3 12 8 7 38 -32 200 l-46 191 34 35 c18 20 38 52 44
73 5 21 10 145 10 285 0 273 -4 294 -63 355 -53 54 -98 62 -372 62 -133 0
-245 -3 -248 -7z m435 -240 c16 -14 18 -34 18 -173 0 -118 -3 -161 -14 -175
-12 -16 -30 -20 -115 -23 l-101 -4 0 196 0 196 97 0 c76 0 100 -4 115 -17z"/>
<path d="M6715 1228 c-3 -7 -4 -276 -3 -598 l3 -585 343 -3 343 -2 -3 112 -3
113 -222 3 -223 2 0 120 0 120 173 2 172 3 0 115 0 115 -172 3 -173 2 0 125 0
125 223 2 222 3 0 115 0 115 -338 3 c-265 2 -339 0 -342 -10z"/>
<path d="M7487 1234 c-4 -4 -7 -274 -7 -601 l0 -593 263 0 c256 0 263 1 314
24 39 19 58 35 80 73 l28 48 3 430 c2 305 0 442 -8 470 -16 55 -53 101 -103
128 -40 21 -55 22 -302 25 -143 2 -264 0 -268 -4z m434 -253 c18 -22 19 -43
19 -347 0 -390 9 -364 -130 -364 l-90 0 0 371 0 371 91 -4 c81 -3 93 -6 110
-27z"/>
<path d="M8360 695 l0 -176 48 1 c26 0 59 -2 74 -6 40 -9 77 3 109 37 25 27
28 28 34 10 3 -10 21 -26 39 -35 67 -32 150 -13 174 38 11 26 11 26 -28 26
-22 0 -49 -6 -60 -12 -21 -14 -50 -3 -58 20 -3 9 20 12 78 12 l82 0 -4 30 c-3
17 -1 30 4 30 4 0 8 -34 8 -75 l0 -75 40 0 40 0 0 75 c0 73 1 75 25 75 24 0
25 -2 25 -75 l0 -75 40 0 40 0 0 75 c0 60 3 75 15 75 11 0 15 -11 15 -43 0
-73 50 -117 132 -117 108 0 168 111 102 189 -47 56 -153 62 -205 10 -19 -19
-19 -19 -19 6 0 18 -5 25 -20 25 -16 0 -20 7 -20 30 0 28 -2 30 -40 30 -38 0
-40 -2 -40 -30 0 -25 -4 -30 -25 -30 -21 0 -25 5 -25 30 0 28 -2 30 -40 30
-38 0 -40 -2 -40 -30 0 -20 -5 -30 -15 -30 -8 0 -15 -9 -15 -20 0 -21 0 -21
-21 -1 -45 42 -139 34 -178 -15 l-20 -25 -28 31 c-29 33 -75 43 -120 27 -22
-8 -23 -7 -23 62 l0 71 -40 0 -40 0 0 -175z"/>
<path d="M9370 630 l0 -110 40 0 40 0 0 48 c0 68 18 97 58 96 31 -2 32 0 32
37 0 36 -2 39 -27 39 -14 0 -35 -7 -45 -17 -17 -15 -18 -15 -18 0 0 13 -9 17
-40 17 l-40 0 0 -110z"/>
<path d="M9370 395 c0 -58 -2 -65 -20 -65 -16 0 -20 7 -20 30 0 28 -2 30 -40
30 -38 0 -40 -2 -40 -30 0 -20 -5 -30 -15 -30 -8 0 -15 -9 -15 -20 0 -21 0
-21 -21 -1 -46 42 -139 34 -179 -16 -23 -29 -27 -97 -9 -137 33 -72 184 -74
217 -2 11 26 11 26 -28 26 -22 0 -49 -6 -60 -12 -21 -14 -50 -3 -58 20 -3 9
20 12 78 12 l82 0 -4 30 c-3 17 -1 30 4 30 4 0 8 -34 8 -75 l0 -75 40 0 40 0
0 75 c0 68 2 75 20 75 18 0 20 -7 20 -75 l0 -75 40 0 40 0 0 53 c0 66 8 94 27
101 30 12 43 -14 43 -85 l0 -69 40 0 40 0 0 88 c0 62 -4 94 -15 109 -21 29
-68 38 -105 20 l-30 -15 0 74 0 74 -40 0 -40 0 0 -65z"/>
<path d="M8370 360 c0 -20 -5 -30 -15 -30 -10 0 -15 -11 -15 -35 0 -24 5 -35
15 -35 12 0 15 -15 15 -75 l0 -75 40 0 40 0 0 75 c0 60 3 75 15 75 11 0 15
-11 15 -43 0 -49 19 -81 60 -102 64 -33 169 -6 189 48 9 22 9 22 22 -6 22 -48
93 -72 140 -47 14 8 19 7 19 -3 0 -30 -59 -52 -75 -27 -3 5 -26 10 -51 10 -50
0 -58 -16 -24 -50 60 -60 188 -51 218 15 7 16 12 75 12 151 l0 126 -42 -3
c-24 -1 -57 1 -74 5 -41 9 -97 -13 -119 -48 l-17 -25 -25 29 c-46 55 -153 60
-204 9 -19 -19 -19 -19 -19 6 0 18 -5 25 -20 25 -16 0 -20 7 -20 30 0 28 -2
30 -40 30 -38 0 -40 -2 -40 -30z"/>
<path d="M9694 326 c-43 -19 -64 -53 -64 -103 0 -57 16 -89 55 -108 65 -30
144 -14 171 36 13 24 13 24 14 -8 0 -32 2 -33 40 -33 l40 0 0 48 c0 64 18 97
53 97 25 -1 27 2 27 37 0 32 -3 38 -22 38 -12 0 -30 -7 -40 -17 -17 -15 -18
-15 -18 0 0 13 -9 17 -40 17 l-40 0 0 -42 0 -43 -15 30 c-9 17 -24 36 -35 42
-31 20 -92 24 -126 9z"/>
</g>
</svg>
