<?xml version="1.0" standalone="no"?>
<!DOCTYPE svg PUBLIC "-//W3C//DTD SVG 20010904//EN"
 "http://www.w3.org/TR/2001/REC-SVG-20010904/DTD/svg10.dtd">
<svg version="1.0" xmlns="http://www.w3.org/2000/svg"
 width="843.000000pt" height="840.000000pt" viewBox="0 0 843.000000 840.000000"
 preserveAspectRatio="xMidYMid meet">
<metadata>
Created by potrace 1.16, written by Peter Selinger 2001-2019
</metadata>
<g transform="translate(0.000000,840.000000) scale(0.100000,-0.100000)"
fill="#000000" stroke="none">
<path d="M380 8341 c-89 -29 -141 -60 -206 -125 -65 -65 -102 -127 -128 -215
-15 -50 -16 -387 -16 -3826 0 -3439 1 -3776 16 -3826 41 -137 139 -254 261
-312 l68 -32 3835 0 3835 0 68 32 c122 58 220 175 261 312 15 50 16 387 16
3826 0 3439 -1 3776 -16 3826 -26 88 -63 150 -128 215 -65 65 -127 102 -215
128 -50 15 -386 16 -3825 15 -3586 0 -3774 -1 -3826 -18z m4350 -2301 c140 -6
327 -17 414 -24 134 -11 161 -16 173 -31 18 -25 19 -264 0 -288 -11 -16 -23
-17 -127 -8 -123 11 -439 31 -490 31 l-30 0 2 -177 3 -178 155 -7 c240 -10
319 -18 335 -35 12 -11 15 -43 15 -146 0 -73 -4 -138 -9 -146 -8 -12 -40 -12
-207 -2 -110 6 -220 11 -246 11 l-48 0 0 -169 0 -169 118 -7 c409 -22 508 -32
528 -52 21 -21 21 -275 -1 -293 -11 -9 -61 -8 -232 4 -120 9 -334 19 -476 23
-203 5 -262 9 -273 20 -12 12 -14 140 -14 818 0 717 2 805 16 819 19 19 48 20
394 6z m-694 -45 c63 -33 112 -92 135 -163 17 -52 24 -603 9 -690 -14 -81 -49
-151 -94 -189 l-35 -28 66 -263 c51 -203 63 -266 54 -275 -16 -16 -289 -23
-304 -8 -6 6 -38 113 -72 238 l-61 228 -29 3 c-17 2 -67 1 -112 -3 l-83 -7 0
-244 c0 -244 0 -244 -22 -253 -33 -12 -265 -34 -283 -27 -13 5 -15 106 -15
825 0 771 1 821 18 830 16 8 199 30 427 50 55 5 154 8 221 8 113 -2 124 -4
180 -32z m1634 -35 c177 -24 441 -69 619 -105 68 -14 125 -25 127 -25 1 0 10
-7 18 -16 13 -12 16 -41 16 -155 0 -121 -2 -140 -17 -146 -9 -3 -55 1 -102 11
-113 22 -446 82 -493 89 l-38 6 0 -178 0 -177 113 -18 c61 -10 168 -28 237
-42 163 -31 160 -28 160 -188 0 -85 -4 -128 -13 -140 -13 -17 -23 -16 -223 18
-115 21 -224 40 -241 43 l-33 5 0 -171 c0 -169 0 -171 23 -176 12 -2 78 -14
147 -25 217 -36 434 -81 458 -96 21 -14 22 -20 22 -158 0 -113 -3 -145 -14
-149 -7 -3 -76 7 -152 23 -193 39 -419 76 -627 105 -97 13 -181 26 -187 30
-11 7 -15 1637 -3 1648 10 11 38 9 203 -13z m-2552 -12 c18 -18 17 -282 -1
-297 -8 -6 -79 -20 -160 -32 l-147 -22 -2 -663 c-2 -447 -6 -666 -14 -674 -11
-11 -251 -60 -295 -60 -15 0 -30 7 -33 16 -3 9 -6 308 -6 666 l0 650 -22 -5
c-200 -47 -280 -60 -289 -47 -5 8 -9 74 -9 147 0 137 5 154 48 167 110 32 808
161 893 165 14 1 30 -4 37 -11z m3605 -164 c341 -85 900 -262 937 -296 19 -17
20 -31 20 -184 0 -139 -2 -166 -15 -171 -12 -4 -189 50 -342 105 -10 3 -13
-158 -15 -769 l-3 -774 -21 -3 c-12 -2 -90 17 -173 43 -84 25 -154 45 -156 45
-2 0 -11 7 -19 16 -14 14 -16 99 -16 789 l0 774 -37 10 c-21 6 -101 26 -178
45 -90 23 -144 41 -152 52 -18 24 -18 325 -1 342 16 16 9 17 171 -24z m-4812
-31 c51 -20 102 -80 122 -144 14 -41 17 -94 17 -265 0 -196 -1 -214 -18 -223
-27 -15 -310 -91 -337 -91 -12 0 -26 7 -29 16 -3 9 -6 75 -6 147 0 183 -11
192 -172 138 -110 -37 -125 -46 -148 -84 -18 -29 -20 -52 -20 -243 l0 -211
288 -7 c322 -8 393 -14 422 -41 19 -18 20 -30 20 -409 0 -429 -2 -446 -60
-555 -41 -76 -115 -146 -206 -193 -58 -30 -417 -150 -534 -179 -60 -15 -152
-10 -195 10 -49 22 -68 43 -97 106 -21 46 -23 66 -26 265 -4 207 -3 216 17
234 24 21 303 126 336 126 31 0 35 -21 35 -172 0 -125 1 -128 25 -144 24 -15
30 -15 113 10 127 39 139 45 172 83 l30 34 0 210 0 210 -347 -2 c-347 -1 -347
-1 -365 21 -17 20 -18 52 -18 399 0 414 5 463 58 567 59 116 146 199 268 255
73 34 395 136 467 148 63 12 136 5 188 -16z m1265 -1881 c63 -29 116 -82 146
-147 21 -46 23 -67 26 -246 3 -162 1 -197 -11 -207 -10 -9 -55 -12 -148 -10
l-134 3 -6 138 c-7 184 -5 182 -169 182 -111 0 -121 -2 -142 -23 l-23 -23 0
-473 c0 -452 1 -475 19 -495 18 -19 30 -21 146 -21 168 0 163 -5 168 178 3 87
8 140 16 144 6 4 68 8 137 8 98 0 129 -3 139 -14 8 -11 11 -68 8 -208 -3 -176
-5 -197 -26 -243 -29 -63 -73 -109 -137 -143 -50 -27 -52 -27 -288 -30 -191
-3 -248 0 -290 12 -109 32 -179 111 -204 230 -16 76 -18 1074 -3 1157 16 87
58 159 114 197 85 57 115 62 376 59 222 -2 238 -3 286 -25z m1086 -5 c69 -34
121 -92 145 -161 16 -45 18 -90 18 -386 0 -384 -3 -402 -81 -489 l-44 -49 62
-255 c33 -140 58 -262 55 -271 -6 -15 -24 -16 -154 -14 l-148 3 -62 245 -61
245 -101 3 -101 3 0 -235 c0 -129 -3 -241 -6 -250 -5 -14 -28 -16 -148 -16
-97 0 -146 4 -154 12 -16 16 -17 1599 -1 1629 10 20 19 20 367 17 l357 -3 57
-28z m1226 21 c8 -8 12 -56 12 -148 0 -92 -4 -140 -12 -148 -9 -9 -93 -12
-315 -12 l-303 0 0 -180 0 -180 233 0 c168 0 236 -3 245 -12 17 -17 17 -279 0
-296 -9 -9 -77 -12 -245 -12 l-233 0 0 -170 0 -170 299 0 c259 0 302 -2 315
-16 13 -12 16 -40 16 -144 0 -71 -3 -135 -6 -144 -5 -14 -56 -16 -468 -16
-346 0 -465 3 -474 12 -16 16 -17 1599 -2 1629 10 18 26 19 468 19 343 0 461
-3 470 -12z m913 -15 c69 -32 113 -76 145 -145 l29 -63 0 -590 c0 -551 -1
-594 -19 -644 -25 -74 -93 -142 -169 -170 -55 -20 -75 -21 -406 -21 -309 0
-350 2 -355 16 -3 9 -6 377 -6 818 0 628 3 805 13 815 9 9 92 11 367 9 338 -3
357 -4 401 -25z"/>
<path d="M3735 5715 c-5 -2 -58 -7 -117 -10 l-108 -7 0 -275 0 -275 63 6 c34
3 100 9 147 12 74 6 88 10 112 35 l28 27 0 220 c0 251 -3 260 -75 267 -22 3
-44 3 -50 0z"/>
<path d="M3790 3321 l0 -271 134 0 c120 0 136 2 160 21 l26 20 0 224 c0 288
13 269 -179 273 l-141 4 0 -271z"/>
<path d="M5950 3070 l0 -510 129 0 c112 0 132 3 152 19 l24 19 3 449 c1 246 0
458 -3 471 -3 12 -14 31 -25 42 -18 18 -34 20 -150 20 l-130 0 0 -510z"/>
</g>
</svg>
